<mxfile host="65bd71144e">
    <diagram name="PÃ¡gina-1" id="y00C1rK71xgJsWcqw9Ae">
        <mxGraphModel dx="1853" dy="2103" grid="1" gridSize="10" guides="1" tooltips="1" connect="1" arrows="1" fold="1" page="1" pageScale="1" pageWidth="827" pageHeight="1169" math="0" shadow="0">
            <root>
                <mxCell id="0"/>
                <mxCell id="1" parent="0"/>
                <mxCell id="mYkmmixSHCOm1gr4Cv4x-1" value="Pizzas" style="swimlane;fontStyle=1;align=center;verticalAlign=top;childLayout=stackLayout;horizontal=1;startSize=26;horizontalStack=0;resizeParent=1;resizeParentMax=0;resizeLast=0;collapsible=1;marginBottom=0;whiteSpace=wrap;html=1;" parent="1" vertex="1">
                    <mxGeometry x="-160" y="170" width="230" height="208" as="geometry">
                        <mxRectangle x="170" y="230" width="100" height="30" as="alternateBounds"/>
                    </mxGeometry>
                </mxCell>
                <mxCell id="mYkmmixSHCOm1gr4Cv4x-2" value="+ uuid: string&lt;br&gt;+&amp;nbsp;description: string&lt;br&gt;+&amp;nbsp;sellingPrice: number(decimal)&lt;br&gt;+ suggestedPrice: number(decimal)&lt;br&gt;+ deleted: bool&lt;br&gt;+ completed: bool" style="text;strokeColor=none;fillColor=none;align=left;verticalAlign=top;spacingLeft=4;spacingRight=4;overflow=hidden;rotatable=0;points=[[0,0.5],[1,0.5]];portConstraint=eastwest;whiteSpace=wrap;html=1;" parent="mYkmmixSHCOm1gr4Cv4x-1" vertex="1">
                    <mxGeometry y="26" width="230" height="104" as="geometry"/>
                </mxCell>
                <mxCell id="mYkmmixSHCOm1gr4Cv4x-3" value="" style="line;strokeWidth=1;fillColor=none;align=left;verticalAlign=middle;spacingTop=-1;spacingLeft=3;spacingRight=3;rotatable=0;labelPosition=right;points=[];portConstraint=eastwest;strokeColor=inherit;" parent="mYkmmixSHCOm1gr4Cv4x-1" vertex="1">
                    <mxGeometry y="130" width="230" height="8" as="geometry"/>
                </mxCell>
                <mxCell id="mYkmmixSHCOm1gr4Cv4x-4" value="+ create&lt;br style=&quot;border-color: var(--border-color);&quot;&gt;+ select&lt;br style=&quot;border-color: var(--border-color);&quot;&gt;+ update&lt;br style=&quot;border-color: var(--border-color);&quot;&gt;+ delete" style="text;strokeColor=none;fillColor=none;align=left;verticalAlign=top;spacingLeft=4;spacingRight=4;overflow=hidden;rotatable=0;points=[[0,0.5],[1,0.5]];portConstraint=eastwest;whiteSpace=wrap;html=1;" parent="mYkmmixSHCOm1gr4Cv4x-1" vertex="1">
                    <mxGeometry y="138" width="230" height="70" as="geometry"/>
                </mxCell>
                <mxCell id="mYkmmixSHCOm1gr4Cv4x-9" value="Ingredients" style="swimlane;fontStyle=1;align=center;verticalAlign=top;childLayout=stackLayout;horizontal=1;startSize=26;horizontalStack=0;resizeParent=1;resizeParentMax=0;resizeLast=0;collapsible=1;marginBottom=0;whiteSpace=wrap;html=1;" parent="1" vertex="1">
                    <mxGeometry x="480" y="160" width="230" height="280" as="geometry">
                        <mxRectangle x="170" y="230" width="100" height="30" as="alternateBounds"/>
                    </mxGeometry>
                </mxCell>
                <mxCell id="mYkmmixSHCOm1gr4Cv4x-10" value="+ id: string&lt;br&gt;+&amp;nbsp;description: string&lt;br&gt;+&amp;nbsp;unit: string&lt;br&gt;+&amp;nbsp;valuePerUnit: number(decimal)&lt;br&gt;+ deleted: bool" style="text;strokeColor=none;fillColor=none;align=left;verticalAlign=top;spacingLeft=4;spacingRight=4;overflow=hidden;rotatable=0;points=[[0,0.5],[1,0.5]];portConstraint=eastwest;whiteSpace=wrap;html=1;" parent="mYkmmixSHCOm1gr4Cv4x-9" vertex="1">
                    <mxGeometry y="26" width="230" height="124" as="geometry"/>
                </mxCell>
                <mxCell id="mYkmmixSHCOm1gr4Cv4x-11" value="" style="line;strokeWidth=1;fillColor=none;align=left;verticalAlign=middle;spacingTop=-1;spacingLeft=3;spacingRight=3;rotatable=0;labelPosition=right;points=[];portConstraint=eastwest;strokeColor=inherit;" parent="mYkmmixSHCOm1gr4Cv4x-9" vertex="1">
                    <mxGeometry y="150" width="230" height="8" as="geometry"/>
                </mxCell>
                <mxCell id="mYkmmixSHCOm1gr4Cv4x-12" value="+ create&lt;br&gt;+ select&lt;br&gt;+ update&lt;br&gt;+ delete&lt;br&gt;+ findUsages =&amp;gt; Pizzas[]" style="text;strokeColor=none;fillColor=none;align=left;verticalAlign=top;spacingLeft=4;spacingRight=4;overflow=hidden;rotatable=0;points=[[0,0.5],[1,0.5]];portConstraint=eastwest;whiteSpace=wrap;html=1;" parent="mYkmmixSHCOm1gr4Cv4x-9" vertex="1">
                    <mxGeometry y="158" width="230" height="122" as="geometry"/>
                </mxCell>
                <mxCell id="mYkmmixSHCOm1gr4Cv4x-13" value="Ingredients x Pizzas" style="swimlane;fontStyle=1;align=center;verticalAlign=top;childLayout=stackLayout;horizontal=1;startSize=26;horizontalStack=0;resizeParent=1;resizeParentMax=0;resizeLast=0;collapsible=1;marginBottom=0;whiteSpace=wrap;html=1;" parent="1" vertex="1">
                    <mxGeometry x="160" y="180" width="230" height="144" as="geometry">
                        <mxRectangle x="170" y="230" width="100" height="30" as="alternateBounds"/>
                    </mxGeometry>
                </mxCell>
                <mxCell id="mYkmmixSHCOm1gr4Cv4x-14" value="+ uuidPizza: string&lt;br&gt;+ uuidIngredients: string&lt;br&gt;+ ingredientQuantity: number (float)" style="text;strokeColor=none;fillColor=none;align=left;verticalAlign=top;spacingLeft=4;spacingRight=4;overflow=hidden;rotatable=0;points=[[0,0.5],[1,0.5]];portConstraint=eastwest;whiteSpace=wrap;html=1;" parent="mYkmmixSHCOm1gr4Cv4x-13" vertex="1">
                    <mxGeometry y="26" width="230" height="84" as="geometry"/>
                </mxCell>
                <mxCell id="mYkmmixSHCOm1gr4Cv4x-15" value="" style="line;strokeWidth=1;fillColor=none;align=left;verticalAlign=middle;spacingTop=-1;spacingLeft=3;spacingRight=3;rotatable=0;labelPosition=right;points=[];portConstraint=eastwest;strokeColor=inherit;" parent="mYkmmixSHCOm1gr4Cv4x-13" vertex="1">
                    <mxGeometry y="110" width="230" height="8" as="geometry"/>
                </mxCell>
                <mxCell id="mYkmmixSHCOm1gr4Cv4x-16" value="+ method(type): type" style="text;strokeColor=none;fillColor=none;align=left;verticalAlign=top;spacingLeft=4;spacingRight=4;overflow=hidden;rotatable=0;points=[[0,0.5],[1,0.5]];portConstraint=eastwest;whiteSpace=wrap;html=1;" parent="mYkmmixSHCOm1gr4Cv4x-13" vertex="1">
                    <mxGeometry y="118" width="230" height="26" as="geometry"/>
                </mxCell>
                <mxCell id="mYkmmixSHCOm1gr4Cv4x-18" value="" style="endArrow=classic;startArrow=classic;html=1;rounded=0;exitX=1.011;exitY=0.428;exitDx=0;exitDy=0;entryX=-0.002;entryY=0.399;entryDx=0;entryDy=0;exitPerimeter=0;entryPerimeter=0;" parent="1" source="mYkmmixSHCOm1gr4Cv4x-2" target="mYkmmixSHCOm1gr4Cv4x-14" edge="1">
                    <mxGeometry width="50" height="50" relative="1" as="geometry">
                        <mxPoint x="180" y="300" as="sourcePoint"/>
                        <mxPoint x="230" y="250" as="targetPoint"/>
                    </mxGeometry>
                </mxCell>
                <mxCell id="mYkmmixSHCOm1gr4Cv4x-19" value="" style="endArrow=classic;startArrow=classic;html=1;rounded=0;exitX=1;exitY=0.5;exitDx=0;exitDy=0;entryX=0;entryY=0.5;entryDx=0;entryDy=0;" parent="1" edge="1">
                    <mxGeometry width="50" height="50" relative="1" as="geometry">
                        <mxPoint x="390" y="240" as="sourcePoint"/>
                        <mxPoint x="480" y="240" as="targetPoint"/>
                    </mxGeometry>
                </mxCell>
                <mxCell id="2" value="Users" style="swimlane;fontStyle=1;align=center;verticalAlign=top;childLayout=stackLayout;horizontal=1;startSize=26;horizontalStack=0;resizeParent=1;resizeParentMax=0;resizeLast=0;collapsible=1;marginBottom=0;whiteSpace=wrap;html=1;" vertex="1" parent="1">
                    <mxGeometry x="-160" y="-150" width="230" height="220" as="geometry">
                        <mxRectangle x="170" y="230" width="100" height="30" as="alternateBounds"/>
                    </mxGeometry>
                </mxCell>
                <mxCell id="3" value="+ uuid: string&lt;br&gt;+&amp;nbsp;name: string&lt;br&gt;+&amp;nbsp;password: string&lt;br&gt;+ signupDate: String (ISO-Date)&lt;br&gt;+ lastLogin: String (ISO-Date)" style="text;strokeColor=none;fillColor=none;align=left;verticalAlign=top;spacingLeft=4;spacingRight=4;overflow=hidden;rotatable=0;points=[[0,0.5],[1,0.5]];portConstraint=eastwest;whiteSpace=wrap;html=1;" vertex="1" parent="2">
                    <mxGeometry y="26" width="230" height="94" as="geometry"/>
                </mxCell>
                <mxCell id="4" value="" style="line;strokeWidth=1;fillColor=none;align=left;verticalAlign=middle;spacingTop=-1;spacingLeft=3;spacingRight=3;rotatable=0;labelPosition=right;points=[];portConstraint=eastwest;strokeColor=inherit;" vertex="1" parent="2">
                    <mxGeometry y="120" width="230" height="8" as="geometry"/>
                </mxCell>
                <mxCell id="5" value="+ signUp&lt;br style=&quot;border-color: var(--border-color);&quot;&gt;+ signIn&lt;br style=&quot;border-color: var(--border-color);&quot;&gt;+ getAll&lt;br style=&quot;border-color: var(--border-color);&quot;&gt;+ getByUuid&lt;br&gt;- getByEmail" style="text;strokeColor=none;fillColor=none;align=left;verticalAlign=top;spacingLeft=4;spacingRight=4;overflow=hidden;rotatable=0;points=[[0,0.5],[1,0.5]];portConstraint=eastwest;whiteSpace=wrap;html=1;" vertex="1" parent="2">
                    <mxGeometry y="128" width="230" height="92" as="geometry"/>
                </mxCell>
            </root>
        </mxGraphModel>
    </diagram>
</mxfile>